<?xml version="1.0" standalone="no"?>
<!DOCTYPE svg PUBLIC "-//W3C//DTD SVG 20010904//EN"
 "http://www.w3.org/TR/2001/REC-SVG-20010904/DTD/svg10.dtd">
<svg version="1.0" xmlns="http://www.w3.org/2000/svg"
 width="500.000000pt" height="500.000000pt" viewBox="0 0 500.000000 500.000000"
 preserveAspectRatio="xMidYMid meet">

<g transform="translate(0.000000,500.000000) scale(0.100000,-0.100000)"
fill="#000000" stroke="none">
<path d="M0 2500 l0 -2500 2500 0 2500 0 0 2500 0 2500 -2500 0 -2500 0 0
-2500z m3085 1505 c33 -46 60 -89 60 -97 0 -7 -12 -14 -27 -16 -19 -2 -28 -9
-28 -20 0 -15 -128 -122 -145 -122 -3 0 -5 7 -5 15 0 13 -82 15 -636 15 -460
0 -641 -3 -650 -11 -12 -9 -14 -102 -14 -514 0 -449 2 -504 16 -509 9 -3 390
-6 848 -6 634 0 835 3 844 12 9 9 12 133 12 498 l0 486 33 14 c17 7 35 15 40
18 8 4 10 -1169 1 -1192 -6 -14 -97 -16 -934 -16 -837 0 -928 2 -934 16 -9 23
-7 1217 2 1231 6 9 143 13 584 13 535 1 576 3 570 18 -5 15 -4 15 12 0 14 -15
32 -17 109 -14 51 2 93 4 95 5 1 1 2 13 2 29 0 21 -2 24 -10 12 -6 -10 -10
-11 -10 -2 0 6 -9 12 -19 12 -11 0 -23 4 -26 10 -6 9 133 201 145 199 3 0 32
-38 65 -84z m-235 -60 c7 -9 8 -15 2 -15 -5 0 -12 7 -16 15 -3 8 -4 15 -2 15
2 0 9 -7 16 -15z m-20 -95 c0 -5 -2 -10 -4 -10 -3 0 -8 5 -11 10 -3 6 -1 10 4
10 6 0 11 -4 11 -10z m379 -42 c11 -10 13 -10 7 0 -5 8 0 12 12 12 11 0 22 -7
26 -15 3 -8 11 -15 18 -14 10 0 10 2 1 6 -28 11 -11 23 32 23 33 0 47 -5 54
-19 6 -10 7 -22 3 -27 -4 -5 0 -3 9 4 9 7 25 9 35 5 18 -7 18 -6 1 12 -16 15
-20 16 -28 4 -7 -11 -9 -11 -9 4 0 12 8 17 30 17 23 0 30 -5 30 -19 0 -22 -25
-45 -39 -37 -5 3 -11 0 -14 -6 -3 -9 -10 -8 -26 7 -19 16 -38 19 -139 20 -103
0 -117 2 -120 18 -3 14 4 17 50 17 30 0 60 -6 67 -12z m-311 -74 c20 -6 13
-13 -59 -67 l-82 -61 -23 29 c-28 35 -23 46 16 38 29 -5 30 -4 30 31 l0 36 48
0 c26 0 57 -3 70 -6z m-1131 -707 c-1 -127 -2 -23 -2 233 0 256 1 360 2 232 2
-127 2 -337 0 -465z m93 668 c-10 -12 -10 -18 1 -32 12 -17 12 -17 -6 -1 -15
14 -16 20 -5 32 7 9 15 16 17 16 3 0 0 -7 -7 -15z m135 -32 c-18 -17 -18 -17
-6 0 11 14 11 20 0 35 -12 16 -12 16 6 0 19 -18 19 -18 0 -35z m-295 22 c0 -8
-4 -15 -10 -15 -5 0 -10 7 -10 15 0 8 5 15 10 15 6 0 10 -7 10 -15z m0 -80 c0
-8 -4 -15 -10 -15 -5 0 -10 7 -10 15 0 8 5 15 10 15 6 0 10 -7 10 -15z m260 5
c0 -6 -33 -10 -80 -10 -47 0 -80 4 -80 10 0 6 33 10 80 10 47 0 80 -4 80 -10z
m110 0 c0 -5 -18 -10 -40 -10 -22 0 -40 5 -40 10 0 6 18 10 40 10 22 0 40 -4
40 -10z m-370 -75 c0 -8 -4 -15 -10 -15 -5 0 -10 7 -10 15 0 8 5 15 10 15 6 0
10 -7 10 -15z m400 0 c0 -13 -21 -15 -130 -15 -109 0 -130 2 -130 15 0 13 21
15 130 15 109 0 130 -2 130 -15z m170 0 c0 -12 -14 -15 -70 -15 -56 0 -70 3
-70 15 0 12 14 15 70 15 56 0 70 -3 70 -15z m290 0 c0 -13 -18 -15 -127 -13
-90 2 -128 7 -131 16 -3 9 27 12 127 12 111 0 131 -2 131 -15z m-860 -70 c0
-8 -4 -15 -10 -15 -5 0 -10 7 -10 15 0 8 5 15 10 15 6 0 10 -7 10 -15z m590 0
c0 -13 -32 -15 -225 -15 -193 0 -225 2 -225 15 0 13 32 15 225 15 193 0 225
-2 225 -15z m160 0 c0 -12 -13 -15 -60 -15 -47 0 -60 3 -60 15 0 12 13 15 60
15 47 0 60 -3 60 -15z m228 3 c-3 -9 -34 -14 -96 -16 -77 -2 -92 0 -92 13 0
12 16 15 96 15 72 0 95 -3 92 -12z m-978 -73 c0 -8 -4 -15 -10 -15 -5 0 -10 7
-10 15 0 8 5 15 10 15 6 0 10 -7 10 -15z m300 0 c0 -12 -16 -15 -80 -15 -64 0
-80 3 -80 15 0 12 16 15 80 15 64 0 80 -3 80 -15z m380 0 c0 -13 -26 -15 -170
-15 -144 0 -170 2 -170 15 0 13 26 15 170 15 144 0 170 -2 170 -15z m-680 -70
c0 -8 -4 -15 -10 -15 -5 0 -10 7 -10 15 0 8 5 15 10 15 6 0 10 -7 10 -15z
m500 0 c0 -13 -27 -15 -180 -15 -153 0 -180 2 -180 15 0 13 27 15 180 15 153
0 180 -2 180 -15z m200 0 c0 -12 -16 -15 -85 -15 -69 0 -85 3 -85 15 0 12 16
15 85 15 69 0 85 -3 85 -15z m390 0 c0 -13 -27 -15 -180 -15 -153 0 -180 2
-180 15 0 13 27 15 180 15 153 0 180 -2 180 -15z m-1090 -70 c0 -8 -4 -15 -10
-15 -5 0 -10 7 -10 15 0 8 5 15 10 15 6 0 10 -7 10 -15z m490 0 c0 -13 -26
-15 -175 -15 -149 0 -175 2 -175 15 0 13 26 15 175 15 149 0 175 -2 175 -15z
m350 -5 c0 -6 -58 -10 -155 -10 -97 0 -155 4 -155 10 0 6 58 10 155 10 97 0
155 -4 155 -10z m-840 -65 c0 -8 -4 -15 -10 -15 -5 0 -10 7 -10 15 0 8 5 15
10 15 6 0 10 -7 10 -15z m270 -5 c0 -6 -35 -10 -85 -10 -50 0 -85 4 -85 10 0
6 35 10 85 10 50 0 85 -4 85 -10z m-270 -70 c0 -11 -4 -20 -10 -20 -5 0 -10 9
-10 20 0 11 5 20 10 20 6 0 10 -9 10 -20z m370 0 c0 -6 -45 -10 -115 -10 -70
0 -115 4 -115 10 0 6 45 10 115 10 70 0 115 -4 115 -10z m590 0 c0 -6 -98 -10
-275 -10 -177 0 -275 4 -275 10 0 6 98 10 275 10 177 0 275 -4 275 -10z m270
0 c0 -6 -45 -10 -115 -10 -70 0 -115 4 -115 10 0 6 45 10 115 10 70 0 115 -4
115 -10z m-1230 -75 c0 -8 -4 -15 -10 -15 -5 0 -10 7 -10 15 0 8 5 15 10 15 6
0 10 -7 10 -15z m370 0 c0 -12 -19 -15 -115 -15 -96 0 -115 3 -115 15 0 12 19
15 115 15 96 0 115 -3 115 -15z m410 0 c0 -13 -28 -15 -190 -15 -162 0 -190 2
-190 15 0 13 28 15 190 15 162 0 190 -2 190 -15z m100 6 c0 -5 -13 -11 -30
-13 -20 -3 -30 0 -30 9 0 8 12 13 30 13 17 0 30 -4 30 -9z m-880 -76 c0 -8 -4
-15 -10 -15 -5 0 -10 7 -10 15 0 8 5 15 10 15 6 0 10 -7 10 -15z m250 0 c0
-12 -13 -15 -55 -15 -42 0 -55 3 -55 15 0 12 13 15 55 15 42 0 55 -3 55 -15z
m570 5 c0 -6 -95 -10 -265 -10 -170 0 -265 4 -265 10 0 6 95 10 265 10 170 0
265 -4 265 -10z m-820 -75 c0 -8 -4 -15 -10 -15 -5 0 -10 7 -10 15 0 8 5 15
10 15 6 0 10 -7 10 -15z m210 -1 c0 -12 -10 -14 -52 -12 -74 4 -77 28 -4 28
44 0 56 -3 56 -16z m40 -47 c0 -2 -12 -14 -27 -28 l-28 -24 24 28 c23 25 31
32 31 24z m-860 -892 c33 -19 41 -18 33 1 -5 14 7 15 105 12 106 -3 112 -4
141 -32 l29 -28 36 27 c61 47 170 47 220 0 l26 -24 0 29 0 30 456 0 c400 0
458 -2 468 -15 10 -14 15 -14 46 -1 24 10 75 14 168 15 l132 0 0 -59 c0 -57 1
-60 25 -60 24 0 25 3 25 60 l0 60 70 0 c60 0 70 -3 71 -17 1 -17 2 -17 6 0 4
15 14 17 70 15 l66 -3 14 -47 c7 -27 16 -48 18 -48 2 0 11 21 18 48 l14 47 67
3 66 3 1 -28 2 -28 4 28 4 27 135 0 134 0 0 -27 1 -28 22 28 23 27 166 0 c186
0 178 3 178 -76 0 -26 -5 -47 -12 -49 -19 -8 -20 -106 -2 -126 10 -11 14 -33
12 -65 l-3 -49 -165 -3 -165 -3 -27 33 -27 33 -1 -32 0 -33 -190 0 -190 0 -1
38 c0 34 -1 35 -11 15 -9 -19 -19 -23 -58 -23 -39 0 -49 4 -58 23 -10 20 -11
19 -11 -15 l-1 -38 -120 0 -120 0 0 60 c0 57 -1 60 -25 60 -24 0 -25 -3 -25
-59 l0 -60 -135 1 c-108 0 -142 4 -169 18 -33 16 -35 16 -39 -1 -5 -17 -17
-19 -131 -19 l-126 0 0 120 0 120 -26 0 -27 0 6 -120 5 -120 -69 0 -69 0 0
120 c0 118 0 120 -22 120 -21 0 -23 -5 -25 -53 -1 -34 4 -58 13 -68 10 -11 14
-33 12 -65 l-3 -49 -127 -3 -128 -3 0 61 0 60 -35 0 -35 0 0 -60 0 -60 -70 0
-70 0 0 32 c0 29 -1 30 -17 16 -57 -50 -142 -62 -205 -30 -29 15 -37 16 -44 5
-5 -8 -32 -16 -61 -20 -51 -5 -52 -5 -72 28 l-21 34 0 -33 0 -33 -67 3 -68 3
3 74 4 74 -30 -22 c-17 -12 -44 -24 -61 -27 -30 -6 -31 -9 -31 -55 l0 -49 -68
0 -68 0 -1 185 -2 185 97 0 c65 -1 105 -5 122 -15z"/>
<path d="M3295 3800 c3 -5 8 -10 11 -10 2 0 4 5 4 10 0 6 -5 10 -11 10 -5 0
-7 -4 -4 -10z"/>
<path d="M1509 1931 c-69 -21 -99 -66 -99 -145 0 -97 41 -146 123 -146 95 0
137 49 137 158 0 50 -4 66 -26 91 -14 17 -42 35 -62 41 -41 11 -38 11 -73 1z
m72 -60 c18 -14 23 -31 27 -79 4 -55 2 -63 -21 -86 -31 -31 -56 -33 -88 -7
-21 17 -24 28 -24 86 0 58 3 69 24 86 29 24 53 24 82 0z"/>
<path d="M1516 1834 c-9 -23 -7 -87 3 -102 5 -8 17 -12 27 -10 21 3 31 59 20
105 -7 26 -41 32 -50 7z"/>
<path d="M2705 1932 c-75 -10 -110 -66 -103 -168 4 -60 7 -70 36 -95 27 -24
41 -29 85 -29 59 0 71 6 79 37 6 22 4 23 -46 17 -49 -6 -54 -5 -75 22 -19 24
-22 38 -19 81 6 73 20 86 85 81 45 -4 54 -2 59 15 3 10 2 22 -3 27 -11 10 -62
17 -98 12z"/>
<path d="M910 1785 l0 -145 30 0 c29 0 30 2 30 44 0 43 0 43 41 50 55 9 86 31
99 72 14 41 7 77 -20 104 -17 17 -34 20 -100 20 l-80 0 0 -145z m121 95 c13
-7 19 -21 19 -43 0 -40 -15 -57 -52 -57 -27 0 -28 2 -28 48 0 64 15 76 61 52z"/>
<path d="M1163 1785 l2 -145 28 0 c26 0 27 2 27 50 0 45 2 50 23 50 16 0 29
-12 47 -48 25 -47 51 -61 86 -48 11 4 6 17 -22 56 l-36 50 26 31 c34 40 35 91
1 124 -22 22 -32 25 -104 25 l-80 0 2 -145z m128 84 c11 -11 18 -27 15 -36 -3
-8 -6 -19 -6 -23 0 -15 -36 -29 -58 -23 -18 4 -22 13 -22 47 0 24 3 46 7 49
13 13 43 7 64 -14z"/>
<path d="M1720 1785 l0 -145 30 0 30 0 0 61 0 61 45 -4 c41 -3 45 -1 45 19 0
21 -5 23 -45 23 l-45 0 0 40 0 40 54 0 c52 0 66 9 66 41 0 5 -40 9 -90 9 l-90
0 0 -145z"/>
<path d="M1930 1785 l0 -145 90 0 c89 0 90 0 90 25 0 24 -3 25 -60 25 l-60 0
0 34 c0 34 1 35 48 38 40 3 47 6 50 26 3 20 0 22 -47 22 l-51 0 0 35 0 35 60
0 c33 0 60 4 60 9 0 5 3 16 6 25 5 14 -6 16 -90 16 l-96 0 0 -145z"/>
<path d="M2130 1905 c0 -22 4 -25 40 -25 l40 0 0 -120 0 -120 30 0 30 0 0 120
0 120 35 0 c31 0 35 3 35 25 l0 25 -105 0 -105 0 0 -25z"/>
<path d="M2390 1785 l0 -145 90 0 c89 0 90 0 90 25 0 24 -3 25 -60 25 l-60 0
0 34 c0 34 1 35 48 38 40 3 47 6 50 26 3 20 0 22 -47 22 l-51 0 0 35 0 35 60
0 c33 0 60 4 60 9 0 5 3 16 6 25 5 14 -6 16 -90 16 l-96 0 0 -145z"/>
<path d="M2855 1785 l0 -145 32 0 31 0 -5 60 -6 60 67 0 66 0 0 -60 0 -60 30
0 30 0 0 145 0 145 -30 0 -30 0 0 -60 0 -60 -60 0 -60 0 0 60 0 60 -32 0 -33
0 0 -145z"/>
<path d="M3180 1915 c0 -18 -18 -192 -24 -243 -5 -31 -3 -33 22 -30 27 3 27 4
34 97 4 52 9 96 12 98 2 3 17 -34 32 -82 26 -80 30 -86 54 -83 21 3 29 14 54
80 16 43 33 75 38 72 4 -3 8 -25 8 -48 0 -24 3 -64 6 -90 6 -41 10 -46 32 -46
24 0 25 1 19 63 -4 34 -10 99 -13 145 l-7 82 -38 0 c-25 0 -39 -5 -39 -13 0
-7 -13 -48 -29 -92 l-28 -78 -30 89 -30 89 -36 3 c-29 2 -37 0 -37 -13z"/>
<path d="M3530 1785 l0 -145 30 0 30 0 0 145 0 145 -30 0 -30 0 0 -145z"/>
<path d="M3663 1785 l2 -145 27 0 c27 0 27 1 30 73 l3 72 50 -72 c45 -65 53
-73 83 -73 17 0 32 4 32 10 0 5 -22 38 -50 72 -27 34 -50 66 -50 72 0 5 17 32
38 60 57 76 57 76 25 76 -23 0 -37 -12 -78 -66 l-50 -66 -3 66 c-3 65 -3 66
-32 66 l-29 0 2 -145z"/>
<path d="M3930 1785 l0 -145 90 0 c89 0 90 0 90 25 0 24 -3 25 -60 25 l-60 0
0 34 c0 34 1 35 48 38 40 3 47 6 50 26 3 20 0 22 -47 22 l-51 0 0 35 0 35 60
0 c33 0 60 4 60 9 0 5 3 16 6 25 5 14 -6 16 -90 16 l-96 0 0 -145z"/>
<path d="M3858 1831 l-27 -38 29 -34 29 -34 1 73 c0 39 -1 72 -2 72 -2 0 -15
-18 -30 -39z"/>
<path d="M2712 1838 c-14 -14 -16 -77 -3 -97 6 -9 19 -12 42 -7 19 4 42 8 52
9 13 1 17 11 17 45 0 32 -4 43 -13 39 -7 -3 -24 1 -38 9 -30 17 -42 17 -57 2z"/>
</g>
</svg>
